PathFileType	4	(X/Y/Z)	/Users/itak/Documents/Research/Walk-IL/dataset/trc/00254_00009.trc
DataRate	CameraRate	NumFrames	NumMarkers	Units	OrigDataRate	OrigDataStartFrame	OrigNumFrames
100.000000	100.000000	4	53	mm	100.000000	343	549
Frame#	Time	RPSI			LPSI			L3			STRN			T10			C7			CLAV			RBAK			LBAK			LSHO			LUPA			LAEL			LAOL			LWTS			LWPS			LFRA			LIFD			LHPS			LHTS			RSHO			RUPA			RAEL			RAOL			RWTS			RWPS			RFRA			RIFD			RHTS			RHPS			RBHD			LFHD			RFHD			LBHD			LHIP			RHIP			RASI			LASI			LKNE			LTHI			LANK			LTIP			LTOE			LMT1			LMT5			LHEE			RKNE			RTHI			RANK			RTIP			RTOE			RMT1			RMT5			RHEE			
		X1	Y1	Z1	X2	Y2	Z2	X3	Y3	Z3	X4	Y4	Z4	X5	Y5	Z5	X6	Y6	Z6	X7	Y7	Z7	X8	Y8	Z8	X9	Y9	Z9	X10	Y10	Z10	X11	Y11	Z11	X12	Y12	Z12	X13	Y13	Z13	X14	Y14	Z14	X15	Y15	Z15	X16	Y16	Z16	X17	Y17	Z17	X18	Y18	Z18	X19	Y19	Z19	X20	Y20	Z20	X21	Y21	Z21	X22	Y22	Z22	X23	Y23	Z23	X24	Y24	Z24	X25	Y25	Z25	X26	Y26	Z26	X27	Y27	Z27	X28	Y28	Z28	X29	Y29	Z29	X30	Y30	Z30	X31	Y31	Z31	X32	Y32	Z32	X33	Y33	Z33	X34	Y34	Z34	X35	Y35	Z35	X36	Y36	Z36	X37	Y37	Z37	X38	Y38	Z38	X39	Y39	Z39	X40	Y40	Z40	X41	Y41	Z41	X42	Y42	Z42	X43	Y43	Z43	X44	Y44	Z44	X45	Y45	Z45	X46	Y46	Z46	X47	Y47	Z47	X48	Y48	Z48	X49	Y49	Z49	X50	Y50	Z50	X51	Y51	Z51	X52	Y52	Z52	X53	Y53	Z53	

344	3.43	-355.5883483886719	1007.723571777344	-30.64820289611816	-247.3923950195312	1009.591796875	-83.35212707519531	-296.8169555664062	1094.244750976562	-67.50067901611328	-186.0898284912109	1276.2001953125	159.8363647460938	-305.7435302734375	1222.218627929688	-62.7291374206543	-279.6577758789062	1482.208984375	-1.034298539161682	-200.6422576904297	1393.785278320312	140.3137664794922	-377.054931640625	1342.782958984375	-38.13600158691406	-194.8542175292969	1446.719970703125	-74.82052612304688	-101.6408157348633	1445.483642578125	-26.73269844055176	-56.29229736328125	1329.836181640625	-102.6938247680664	-31.57894706726074	1121.64111328125	-128.9967346191406	-112.5201873779297	1109.717407226562	-159.5511779785156	-30.04165267944336	880.8768310546875	-39.03194427490234	18.40025901794434	867.6343994140625	-108.3288269042969	-9.854516983032227	1013.472473144531	-127.7178268432617	-28.02070999145508	688.1255493164062	-52.57234954833984	22.17758560180664	778.2597045898438	-97.35083770751953	5.210790157318115	778.3715209960938	-30.86944770812988	-401.36083984375	1438.635131835938	127.2453231811523	-469.2947998046875	1373.412841796875	138.4162445068359	-517.040771484375	1092.09423828125	130.9443511962891	-454.937255859375	1086.997192382812	59.05447006225586	-386.9728393554688	902.4885864257812	245.9295959472656	-465.7290954589844	874.0216674804688	232.3011474609375	-508.391845703125	1024.608764648438	164.1294555664062	-343.9236755371094	714.4866333007812	273.3225402832031	-362.7115783691406	787.9032592773438	296.2607116699219	-430.30615234375	774.5983276367188	275.2051086425781	-296.0787963867188	1642.529663085938	63.91669464111328	-134.6593627929688	1667.385375976562	222.68017578125	-227.8077392578125	1662.40380859375	257.8347473144531	-155.1796417236328	1650.04150390625	59.76891708374023	-76.90283203125	954.7720336914062	-39.85359573364258	-414.898193359375	970.1198120117188	102.1503601074219	-344.3536682128906	1013.291564941406	177.5784759521484	-88.05831146240234	1001.053771972656	67.51610565185547	-29.75399971008301	515.729248046875	172.239501953125	-27.13657188415527	640.3106079101562	98.38958740234375	-5.10796594619751	31.25450325012207	220.1387634277344	-11.4432201385498	285.2890625	188.7288665771484	3.566845417022705	74.98017120361328	434.2442321777344	-57.71760940551758	58.76529693603516	385.2998657226562	44.6292610168457	42.52610015869141	336.4410400390625	-73.64072418212891	34.24182510375977	176.6983947753906	-387.9251098632812	493.6337585449219	25.32698440551758	-400.4443054199219	745.0358276367188	128.3441314697266	-465.997314453125	62.45271301269531	-213.8088836669922	-383.1144714355469	377.0103454589844	-19.22601318359375	-300.7804870605469	41.22412109375	-82.57733154296875	-304.2890930175781	46.00775527954102	-150.40234375	-419.4982299804688	38.34567642211914	-115.4725646972656	-460.6829528808594	85.80638122558594	-296.5862731933594	
345	3.44	-349.4118347167969	1007.591857910156	-22.96740913391113	-241.089111328125	1010.107482910156	-75.42229461669922	-290.3514404296875	1093.676147460938	-59.94830703735352	-181.1495513916016	1276.913208007812	167.1101837158203	-299.2450256347656	1221.721069335938	-56.07527542114258	-273.49072265625	1482.110961914062	4.435820579528809	-195.7248992919922	1394.348754882812	146.8850402832031	-370.2474670410156	1342.2900390625	-32.96320724487305	-188.1253356933594	1446.293334960938	-68.58279418945312	-95.31532287597656	1445.204711914062	-19.57496070861816	-48.94946670532227	1329.179809570312	-94.23503875732422	-23.05620384216309	1120.81591796875	-118.4442520141602	-103.5066146850586	1108.366821289062	-150.089111328125	-22.18312644958496	880.706298828125	-26.82110786437988	27.34786224365234	867.1077270507812	-95.32134246826172	-1.089614748954773	1012.767272949219	-116.0497055053711	-19.21415138244629	687.8799438476562	-38.91797637939453	31.25022125244141	777.8118286132812	-83.63982391357422	13.29758739471436	778.401123046875	-17.42933464050293	-396.4976806640625	1438.955810546875	131.6522064208984	-464.4906616210938	1373.701782226562	142.2264099121094	-512.04931640625	1092.429931640625	134.4945678710938	-448.7680358886719	1087.207397460938	63.67330551147461	-384.9382934570312	901.5659790039062	250.7496948242188	-463.7107849121094	873.7297973632812	235.8013153076172	-504.2603759765625	1024.862426757812	167.6175384521484	-343.750732421875	713.2385864257812	278.349853515625	-362.3016052246094	786.708984375	301.1767883300781	-429.6216125488281	773.9164428710938	279.0327758789062	-290.5460510253906	1642.8896484375	68.79559326171875	-130.127685546875	1668.242309570312	228.5733795166016	-223.5509338378906	1663.34423828125	263.1128845214844	-149.5761108398438	1650.40966796875	65.59141540527344	-70.61663818359375	955.6124877929688	-31.29072380065918	-409.2635498046875	969.7888793945312	109.5431518554688	-338.857421875	1013.36328125	185.0977325439453	-82.18603515625	1001.567016601562	76.04314422607422	-25.08175277709961	516.3277587890625	180.7091217041016	-22.61843872070312	641.1390380859375	107.4946441650391	-4.09600305557251	30.99906730651855	221.4410858154297	-8.07982063293457	285.1175231933594	194.9062347412109	3.436881542205811	67.47833251953125	437.8583374023438	-57.59259414672852	53.98828887939453	387.5935974121094	45.32709503173828	38.68329238891602	338.7936096191406	-72.43927001953125	35.83014297485352	177.8576965332031	-383.0001831054688	493.4779052734375	32.48756790161133	-394.7949829101562	744.7392578125	135.50390625	-465.5066223144531	65.64899444580078	-212.4849243164062	-379.2480163574219	377.039306640625	-13.04732704162598	-300.709228515625	41.25464630126953	-82.41343688964844	-303.8039245605469	46.74447250366211	-149.83642578125	-418.9487915039062	38.69926071166992	-114.9104690551758	-459.9111938476562	91.01538848876953	-294.7138366699219	
346	3.45	-343.4109802246094	1007.634582519531	-15.22955703735352	-234.9470367431641	1010.753234863281	-67.42397308349609	-284.0309448242188	1093.399291992188	-52.30902099609375	-176.2012023925781	1277.846923828125	174.3889007568359	-292.8957214355469	1221.474731445312	-49.33342742919922	-267.3556213378906	1482.246215820312	9.965690612792969	-190.8061676025391	1395.143798828125	153.479248046875	-363.5086364746094	1342.050170898438	-27.67120742797852	-181.4396362304688	1446.122924804688	-62.29641723632812	-89.03829193115234	1445.18359375	-12.37875747680664	-41.63443374633789	1328.784790039062	-85.66993713378906	-14.56245613098145	1120.256103515625	-107.599250793457	-94.53345489501953	1107.262573242188	-140.3939056396484	-14.37679290771484	880.7277221679688	-14.48615264892578	36.29248428344727	866.8864135742188	-82.13945770263672	7.659986019134521	1012.356567382812	-104.1157073974609	-10.54348373413086	687.8069458007812	-25.47987937927246	40.30471801757812	777.6549072265625	-69.89447021484375	21.29247856140137	778.5919189453125	-3.999640941619873	-391.5989074707031	1439.50537109375	136.1766052246094	-459.640625	1374.218994140625	146.1904144287109	-506.9724731445312	1092.996948242188	138.1230773925781	-442.4630432128906	1087.663330078125	68.43705749511719	-382.9705200195312	900.799560546875	255.5947418212891	-461.7461853027344	873.6464233398438	239.2536468505859	-500.0808715820312	1025.343994140625	171.1509246826172	-343.815673828125	712.1043701171875	283.3136291503906	-362.0391845703125	785.6337890625	306.0624084472656	-429.0890808105469	773.4242553710938	282.779541015625	-285.0270385742188	1643.424072265625	73.68544769287109	-125.6108169555664	1669.36328125	234.4491729736328	-219.3086090087891	1664.545532226562	268.3797912597656	-144.0126037597656	1650.9853515625	71.41396331787109	-64.47914123535156	956.701416015625	-22.87848091125488	-403.7352294921875	969.6471557617188	117.0238418579102	-333.3780822753906	1013.641479492188	192.6449584960938	-76.36264801025391	1002.358215332031	84.46892547607422	-20.18845176696777	517.0060424804688	188.8488922119141	-17.88672256469727	642.2759399414062	116.4175643920898	-3.078618764877319	30.85335731506348	222.4509735107422	-4.675375938415527	285.0615234375	200.5268402099609	3.492453336715698	61.02884292602539	440.7159118652344	-57.29933929443359	50.07971572875977	389.3501586914062	46.29874420166016	35.62872314453125	340.5953674316406	-71.2432861328125	37.13652801513672	178.8274383544922	-377.9175415039062	493.3374633789062	40.29077529907227	-389.0588073730469	744.6067504882812	142.8941955566406	-464.9519958496094	69.17996978759766	-210.8872833251953	-375.275146484375	377.0998840332031	-6.266683101654053	-300.6419982910156	41.29982376098633	-82.27452087402344	-303.2713317871094	47.54415893554688	-149.2153625488281	-418.3172607421875	39.09603118896484	-114.2510223388672	-459.0150146484375	96.74356842041016	-292.4404907226562	
347	3.46	-337.5792236328125	1007.854309082031	-7.518733501434326	-228.9102783203125	1011.49951171875	-59.40201950073242	-277.8333435058594	1093.437622070312	-44.63862228393555	-171.2620391845703	1278.994506835938	181.6537780761719	-286.7028198242188	1221.486938476562	-42.52899169921875	-261.2566528320312	1482.617919921875	15.54740428924561	-185.8837585449219	1396.165283203125	160.0846405029297	-356.8608703613281	1342.083129882812	-22.26773071289062	-174.7998657226562	1446.210327148438	-55.97036361694336	-82.81278228759766	1445.422973632812	-5.155311584472656	-34.35071182250977	1328.658447265625	-77.02259826660156	-6.12035608291626	1119.970703125	-96.49507904052734	-85.62237548828125	1106.415405273438	-130.4916381835938	-6.627182006835938	880.9534301757812	-2.030204057693481	45.22347640991211	866.9895629882812	-68.77774047851562	16.37430381774902	1012.246520996094	-91.94007110595703	-1.966634154319763	687.9346923828125	-12.24184322357178	49.34096527099609	777.8094482421875	-56.10819625854492	29.1984920501709	778.9535522460938	9.42779541015625	-386.6594848632812	1440.28759765625	140.8252716064453	-454.7394104003906	1374.970092773438	150.3345489501953	-501.830078125	1093.802490234375	141.8541107177734	-436.0921936035156	1088.369262695312	73.33469390869141	-381.0645446777344	900.2017822265625	260.4474792480469	-459.8190612792969	873.7810668945312	242.6668090820312	-495.863037109375	1026.059326171875	174.7510833740234	-344.0908203125	711.0939331054688	288.1693420410156	-361.9050598144531	784.690185546875	310.8844909667969	-428.6970520019531	773.1412963867188	286.4240417480469	-279.5299072265625	1644.131103515625	78.59300994873047	-121.1211318969727	1670.73291015625	240.309814453125	-215.0829467773438	1665.987548828125	273.6414794921875	-138.4973907470703	1651.768798828125	77.23931121826172	-58.46591949462891	957.9999389648438	-14.61470890045166	-398.3230895996094	969.7075805664062	124.5092620849609	-327.9446105957031	1014.1279296875	200.1659698486328	-70.58978271484375	1003.40380859375	92.78520202636719	-15.21661376953125	517.6742553710938	196.5491333007812	-12.97941207885742	643.5836181640625	125.018180847168	-2.130699157714844	30.7926139831543	223.189208984375	-1.364319920539856	285.0838012695312	205.540283203125	3.649991989135742	55.75756072998047	442.8531494140625	-56.94660949707031	47.0647087097168	390.6163330078125	47.3652229309082	33.37908172607422	341.8882141113281	-70.15306854248047	38.12331771850586	179.5835876464844	-372.7077026367188	493.19287109375	48.80226135253906	-383.2842712402344	744.6585693359375	150.4754180908203	-464.3255615234375	73.08477783203125	-208.9830017089844	-371.2164001464844	377.1791687011719	1.178858041763306	-300.5790710449219	41.35584259033203	-82.18240356445312	-302.6912536621094	48.4073600769043	-148.5396881103516	-417.6141357421875	39.55606460571289	-113.4891586303711	-457.9530944824219	103.0236282348633	-289.7060546875	
